<svg xmlns="http://www.w3.org/2000/svg" width="1200" height="400" viewBox="0 0 1200 400">
  <defs>
    <linearGradient id="aboutBg" x1="0%" y1="0%" x2="100%" y2="100%">
      <stop offset="0%" style="stop-color:#1a202c"/>
      <stop offset="50%" style="stop-color:#2d3748"/>
      <stop offset="100%" style="stop-color:#4a5568"/>
    </linearGradient>
  </defs>
  <rect width="1200" height="400" fill="url(#aboutBg)"/>
  <g opacity="0.1" stroke="#a0aec0" stroke-width="1">
    <line x1="0" y1="100" x2="1200" y2="100"/>
    <line x1="0" y1="200" x2="1200" y2="200"/>
    <line x1="0" y1="300" x2="1200" y2="300"/>
    <line x1="200" y1="0" x2="200" y2="400"/>
    <line x1="400" y1="0" x2="400" y2="400"/>
    <line x1="600" y1="0" x2="600" y2="400"/>
    <line x1="800" y1="0" x2="800" y2="400"/>
    <line x1="1000" y1="0" x2="1000" y2="400"/>
  </g>
  <g opacity="0.2">
    <circle cx="200" cy="200" r="50" fill="none" stroke="#63b3ed" stroke-width="3"/>
    <circle cx="400" cy="200" r="50" fill="none" stroke="#68d391" stroke-width="3"/>
    <circle cx="600" cy="200" r="50" fill="none" stroke="#f6ad55" stroke-width="3"/>
    <circle cx="800" cy="200" r="50" fill="none" stroke="#fc8181" stroke-width="3"/>
    <circle cx="1000" cy="200" r="50" fill="none" stroke="#b794f4" stroke-width="3"/>
    <line x1="250" y1="200" x2="350" y2="200" stroke="#a0aec0" stroke-width="2"/>
    <line x1="450" y1="200" x2="550" y2="200" stroke="#a0aec0" stroke-width="2"/>
    <line x1="650" y1="200" x2="750" y2="200" stroke="#a0aec0" stroke-width="2"/>
    <line x1="850" y1="200" x2="950" y2="200" stroke="#a0aec0" stroke-width="2"/>
  </g>
  <text x="600" y="350" font-family="Arial, sans-serif" font-size="18" fill="#a0aec0" text-anchor="middle">Analytics • Forecasting • Supply Chain</text>
</svg>
